<?xml version="1.0" standalone="no"?>
<!DOCTYPE svg PUBLIC "-//W3C//DTD SVG 20010904//EN"
 "http://www.w3.org/TR/2001/REC-SVG-20010904/DTD/svg10.dtd">
<svg version="1.0" xmlns="http://www.w3.org/2000/svg"
 width="3201.000000pt" height="3201.000000pt" viewBox="0 0 3201.000000 3201.000000"
 preserveAspectRatio="xMidYMid meet">
<metadata>
Created by potrace 1.14, written by Peter Selinger 2001-2017
</metadata>
<g transform="translate(0.000000,3201.000000) scale(0.100000,-0.100000)"
fill="#000000" stroke="none">
<path d="M0 16010 l0 -16000 16005 0 16005 0 0 16000 0 16000 -16005 0 -16005
0 0 -16000z m12305 12093 c-4 -10 -23 -64 -41 -120 -76 -235 -120 -476 -133
-719 -36 -700 169 -1307 685 -2031 133 -187 345 -450 649 -803 582 -677 719
-860 856 -1145 105 -218 146 -394 136 -584 -7 -138 -35 -240 -102 -378 -116
-238 -351 -487 -685 -728 -122 -88 -321 -217 -326 -212 -2 2 7 29 21 59 60
132 91 339 75 506 -34 361 -185 676 -579 1212 -127 173 -281 365 -631 785
-549 659 -744 919 -949 1270 -257 439 -364 769 -364 1125 -1 240 44 433 146
636 173 344 457 633 932 948 301 200 325 214 310 179z m-2174 -940 c-201 -651
-184 -1309 50 -1895 46 -116 177 -379 250 -504 184 -313 395 -590 903 -1184
465 -543 652 -783 774 -993 304 -520 288 -940 -52 -1363 -148 -184 -433 -424
-743 -624 l-121 -79 28 62 c82 177 110 400 75 608 -48 292 -202 611 -487 1009
-182 254 -277 373 -748 940 -327 393 -461 561 -602 755 -372 511 -572 910
-650 1295 -31 153 -33 448 -5 580 101 466 397 851 960 1247 124 87 389 254
395 249 2 -2 -10 -48 -27 -103z m8080 -7771 c308 -71 534 -195 755 -416 174
-174 286 -352 358 -568 67 -198 79 -330 80 -863 l1 -440 1855 -6 c1978 -6
1884 -4 2220 -54 695 -103 1384 -351 1995 -718 395 -237 719 -491 1056 -827
287 -287 484 -528 704 -860 819 -1236 1094 -2743 769 -4205 -188 -844 -572
-1615 -1153 -2315 -128 -154 -505 -531 -666 -664 -637 -529 -1306 -879 -2095
-1097 -251 -69 -587 -131 -865 -158 -269 -27 -518 -31 -2133 -31 l-1692 0 1
-438 c2 -545 -10 -674 -83 -882 -171 -483 -595 -854 -1109 -966 -81 -18 -289
-19 -6584 -19 -6151 0 -6505 1 -6586 17 -452 93 -832 383 -1042 795 -79 157
-122 297 -147 483 -17 120 -17 12824 0 12955 49 397 240 734 558 986 204 162
481 279 732 308 42 5 2942 8 6525 7 l6450 -1 96 -23z"/>
<path d="M19405 15138 c-3 -84 -5 -1728 -3 -3653 l3 -3500 1725 1 c1233 1
1759 5 1845 13 754 73 1426 346 1994 808 230 188 526 508 703 763 549 791 765
1761 597 2694 -108 602 -375 1182 -773 1681 -106 133 -384 409 -520 518 -617
491 -1302 764 -2051 817 -84 6 -817 10 -1826 10 l-1687 0 -7 -152z"/>
<path d="M13138 13439 c-309 -30 -618 -146 -870 -326 -134 -96 -336 -298 -474
-475 l-21 -27 -104 20 c-246 48 -965 177 -1609 289 -953 166 -1212 211 -1598
281 -184 33 -337 58 -340 54 -9 -8 -9 -3222 0 -3230 4 -4 109 11 235 34 125
22 669 117 1208 211 1030 179 1544 271 1936 345 130 25 245 45 256 45 12 0 48
-37 102 -105 287 -362 684 -608 1123 -697 98 -20 143 -23 338 -23 196 1 239 4
330 23 355 77 660 238 912 480 238 230 375 447 473 749 64 197 80 301 80 538
0 225 -7 283 -56 473 -64 250 -179 480 -340 677 -78 96 -238 250 -337 323
-346 257 -808 383 -1244 341z"/>
</g>
</svg>
