<?xml version="1.0" standalone="no"?>
<!DOCTYPE svg PUBLIC "-//W3C//DTD SVG 20010904//EN"
 "http://www.w3.org/TR/2001/REC-SVG-20010904/DTD/svg10.dtd">
<svg version="1.0" xmlns="http://www.w3.org/2000/svg"
 width="135.000000pt" height="135.000000pt" viewBox="0 0 135.000000 135.000000"
 preserveAspectRatio="xMidYMid meet">
<metadata>
Created by potrace 1.14, written by Peter Selinger 2001-2017
</metadata>
<g transform="translate(0.000000,135.000000) scale(0.100000,-0.100000)"
fill="#000000" stroke="none">
<path d="M475 1303 c-41 -62 -35 -118 25 -243 28 -56 54 -123 57 -148 l6 -44
23 37 c30 51 25 83 -32 198 -43 88 -47 104 -47 167 0 39 -2 70 -3 70 -2 0 -15
-17 -29 -37z"/>
<path d="M390 1258 c-25 -27 -39 -77 -35 -123 2 -19 26 -85 55 -145 33 -70 52
-123 52 -146 l0 -37 24 29 c21 27 29 57 24 94 -1 8 -22 56 -48 105 -42 83 -46
96 -46 167 -1 43 -2 78 -3 78 -1 0 -11 -10 -23 -22z"/>
<path d="M167 740 c-22 -18 -22 -21 -23 -342 -1 -366 2 -387 60 -389 17 0 152
-1 299 -1 261 -1 269 0 290 20 12 13 22 35 22 54 l1 33 88 2 c105 3 146 14
192 55 137 121 120 355 -33 445 -41 24 -58 27 -147 30 l-100 2 -3 38 c-5 72
-6 72 -334 71 -263 0 -292 -2 -312 -18z m824 -191 c93 -23 148 -153 103 -242
-44 -86 -93 -105 -249 -98 l-30 1 1 168 c1 92 2 170 3 173 2 10 132 8 172 -2z
m-382 -115 c26 -31 24 -83 -5 -115 -22 -25 -74 -24 -101 0 -17 17 -27 18 -62
10 -23 -5 -57 -12 -76 -15 l-35 -5 0 76 c0 71 1 76 19 70 11 -3 45 -10 76 -15
51 -8 61 -7 83 10 32 25 70 19 101 -16z"/>
</g>
</svg>
